<?xml version="1.0" encoding="UTF-8"?>
<!-- Generator: Adobe Illustrator 24.0.2, SVG Export Plug-In . SVG Version: 6.00 Build 0)  -->
<svg xmlns="http://www.w3.org/2000/svg" xmlns:xlink="http://www.w3.org/1999/xlink" version="1.1" id="Layer_1" x="0px" y="0px" viewBox="0 0 465.2 216.5" style="enable-background:new 0 0 465.2 216.5;" xml:space="preserve">
<style type="text/css">
	.st0{fill:#FFFFFF;}
	.st1{fill:none;stroke:#FFFFFF;stroke-miterlimit:10;}
</style>
<title>logomod</title>
<path id="Media" class="st0" d="M226.8,86.9c0.8,0,1.5,0.1,2.3,0.2c0.6,0.1,1.2,0.3,1.7,0.7c0.5,0.4,1,0.8,1.3,1.4  c0.5,0.7,0.9,1.5,1.2,2.3l12.5,28.9c0.1,0.3,0.5,0.6,0.8,0.5h0.7c0.4,0,0.7-0.2,0.9-0.5l12.5-28.9c0.3-0.8,0.7-1.6,1.2-2.3  c0.3-0.5,0.8-1,1.3-1.4c0.5-0.3,1.1-0.6,1.7-0.7c0.7-0.1,1.5-0.2,2.3-0.2h6.5c2.1,0,3.5,0.5,4.2,1.4s1.1,2.6,1.1,4.8v34.4  c0,0.9-0.5,1.3-1.4,1.3h-6.3c-0.7,0-1.3-0.6-1.3-1.3l0,0v-31c0-0.4-0.2-0.6-0.5-0.6h0.5c-0.3,0-0.7,0.2-0.8,0.5l-12.4,26.7  c-0.4,0.9-0.9,1.9-1.5,2.7c-0.5,0.7-1,1.3-1.7,1.8c-0.6,0.5-1.3,0.8-2,1c-0.9,0.2-1.8,0.3-2.7,0.3H246c-0.9,0-1.8-0.1-2.7-0.3  c-0.7-0.2-1.4-0.5-2-1s-1.2-1.1-1.7-1.8c-0.6-0.9-1.1-1.8-1.5-2.7l-12.4-26.7c-0.1-0.3-0.5-0.5-0.8-0.5h-0.5c-0.3,0-0.5,0.2-0.5,0.6  v31.1c0,0.7-0.6,1.3-1.3,1.3l0,0h-6.3c-0.9,0-1.4-0.4-1.4-1.3V93.2c0-2.3,0.4-3.9,1.1-4.9s2.1-1.4,4.3-1.4  C220.3,86.9,226.8,86.9,226.8,86.9z M330.5,86.9c0.9,0,1.4,0.4,1.4,1.3v5.4c0,0.9-0.5,1.3-1.4,1.3H304c-1.3,0-2.6,0.1-3.9,0.4  c-0.9,0.2-1.8,0.7-2.5,1.3c-0.7,0.7-1.1,1.6-1.3,2.5c-0.3,1.3-0.4,2.6-0.4,3.9v0.8h33.7c0.7,0,1.3,0.6,1.3,1.3l0,0v4.3  c0,0.7-0.6,1.3-1.3,1.3l0,0h-33.7v1.1c0,1.4,0.1,2.9,0.4,4.3c0.2,1,0.6,2,1.3,2.8c0.7,0.7,1.5,1.2,2.5,1.4c1.3,0.3,2.6,0.4,3.9,0.4  h26.5c0.7-0.1,1.3,0.4,1.4,1.1c0,0.1,0,0.2,0,0.4v5.2c0,0.9-0.5,1.3-1.4,1.3h-26.6c-2.6,0-5.3-0.2-7.8-0.8c-1.9-0.5-3.7-1.4-5.2-2.7  c-1.4-1.3-2.5-3-3-4.9c-0.7-2.4-1-4.9-0.9-7.4v-10.3c-0.1-2.5,0.3-4.9,0.9-7.3c0.5-1.9,1.6-3.6,3-4.9c1.5-1.3,3.3-2.3,5.2-2.8  c2.6-0.6,5.2-0.9,7.8-0.9L330.5,86.9z M368.6,86.9c2.8,0,5.6,0.3,8.3,1c2.1,0.6,4.1,1.6,5.7,3.1c1.5,1.5,2.6,3.3,3.3,5.3  c0.7,2.5,1.1,5,1,7.6v8.2c0.1,2.6-0.3,5.1-1,7.6c-0.6,2-1.7,3.8-3.3,5.3c-1.6,1.5-3.6,2.5-5.7,3.1c-2.7,0.7-5.5,1-8.3,1h-27.9  c-1,0-1.8-0.8-1.8-1.8V88.7c0-1,0.8-1.8,1.8-1.8C340.7,86.9,368.6,86.9,368.6,86.9z M347.9,120.2c0,0.4,0.2,0.7,0.6,0.8  c0.1,0,0.1,0,0.2,0h19.7c1.5,0,3-0.1,4.5-0.5c1.1-0.3,2.1-0.8,2.9-1.5c0.8-0.8,1.3-1.8,1.6-2.9c0.3-1.4,0.5-2.9,0.5-4.4v-6.5  c0-1.5-0.1-2.9-0.5-4.4c-0.3-1.1-0.8-2.1-1.6-2.9c-0.8-0.7-1.8-1.3-2.9-1.5c-1.5-0.3-3-0.5-4.5-0.5h-19.8c-0.5,0-0.8,0.3-0.8,0.8  L347.9,120.2L347.9,120.2z M401.6,86.9c0.6-0.1,1.2,0.4,1.3,1c0,0.1,0,0.2,0,0.3v39.3c0,0.7-0.6,1.3-1.3,1.3l0,0h-6.3  c-0.6,0.1-1.2-0.3-1.3-1c0-0.1,0-0.2,0-0.3V88.3c-0.1-0.6,0.4-1.2,1-1.3c0.1,0,0.2,0,0.3,0L401.6,86.9z M438.2,86.9  c1.3,0,2.7,0.3,3.8,0.9c1.3,0.9,2.4,2.2,3.1,3.6l19.9,36.1c0.2,0.3,0.2,0.7,0.2,1c-0.1,0.3-0.4,0.4-0.9,0.4h-6.5  c-0.6,0.1-1.2-0.3-1.5-0.8l-4.5-8.2H422l-4.4,8.2c-0.3,0.5-0.9,0.9-1.5,0.8h-6.7c-0.5,0-0.8-0.1-0.9-0.4c-0.1-0.3,0-0.7,0.2-1  l19.7-36.1c0.7-1.4,1.7-2.7,2.9-3.6c1-0.6,2.2-1,3.4-0.9H438.2z M426.6,113.9h20.6l-9.5-17.6c-0.1-0.3-0.4-0.4-0.7-0.4h-0.4  c-0.3,0-0.5,0.2-0.7,0.4L426.6,113.9z"></path>
<polyline class="st0" points="113.9,130.9 113.7,98.7 26.9,149.4 27,181.2 98.6,139.4 "></polyline>
<path class="st0" d="M126.4,124.6c0-10.8,0-21.7,0-32.5L31.3,37.3l-3.8-2.2c-4.1,2.4-8.2,4.5-12.2,7.1c-4.5,2.9-8.2,6.7-11,11.3  C1.7,58.5,0.2,64,0,69.6v76.7c0.7,14,7.1,22.3,16.2,28l11.3,6.5V70.4c0-1.1,0.2-2.2,0.7-3.2l70.7,40.7v31.5"></path>
<path class="st0" d="M181,41.5L115.9,3.9c-10.1-5.2-22.1-5.2-32.3,0L42,27.9c8.7,5.4,18,10.1,26.5,15.9l27.6-15.9  c2.2-1.2,4.9-1.2,7.2,0L167,64.6c2.3,1.5,2.7,2.4,2.9,5.2v75.6c-0.2,2.8-0.7,3.8-3,5.3l-41,23.7v-29c-0.1-1.8-0.1-3.7-0.2-5.6  l-27.8,14.8l1,34.5v27.2c9-0.1,15.9-4,23.4-8.3l58.6-33.8c9-5.6,15.4-13.9,16-27.8V69.1C196.2,55.3,189.9,47.1,181,41.5z"></path>
<line class="st1" x1="98.7" y1="163.6" x2="98.5" y2="216.4"></line>
</svg>
